<svg xmlns="http://www.w3.org/2000/svg" width="1440" height="1024" viewBox="0 0 1440 1024"><style>.label{font:14px Inter,Arial,sans-serif}.label,.subtitle,.title{fill:#111}.title{font:24px Inter,Arial,sans-serif;font-weight:600}.subtitle{font:16px Inter,Arial,sans-serif}.muted{fill:#666;font:12px Inter,Arial,sans-serif}.btn,.input{fill:#fff;stroke:#111;stroke-width:1}.header{fill:#f5f5f5}.panel{fill:#fff;stroke:#111;stroke-width:1}.divider{stroke:#ccc;stroke-width:1}.dot-available{fill:#55a630}.dot-borrowed{fill:#d00000}</style><rect width="1440" height="60" x="0" y="0" class="header"/><text x="24" y="38" class="label">Dashboard • Users • Products • Borrowing • Settings</text><rect width="92" height="32" x="1324" y="14" class="btn" rx="6" ry="6"/><text x="1355" y="35" class="label">Logout</text><text x="24" y="104" class="title">Products</text><rect width="260" height="40" x="24" y="124" class="input" rx="6" ry="6"/><text x="36" y="150" class="muted">Search by name</text><rect width="180" height="40" x="300" y="124" class="input" rx="6" ry="6"/><text x="312" y="150" class="muted">Filter by type ▼</text><rect width="180" height="40" x="492" y="124" class="input" rx="6" ry="6"/><text x="504" y="150" class="muted">Filter by location ▼</text><rect width="160" height="40" x="684" y="124" class="btn" rx="6" ry="6"/><text x="716" y="150" class="label">+ Add Product</text><rect width="860" height="640" x="24" y="188" class="panel"/><rect width="860" height="48" x="24" y="188" class="header"/><text x="40" y="218" class="subtitle">Type</text><text x="160" y="218" class="subtitle">Name</text><text x="430" y="218" class="subtitle">Purchase Date</text><text x="590" y="218" class="subtitle">Location</text><text x="740" y="218" class="subtitle">Status</text><line x1="24" x2="884" y1="236" y2="236" class="divider"/><text x="40" y="268" class="label">Camera</text><text x="160" y="268" class="label">Canon EOS R5</text><text x="430" y="268" class="label">2021</text><text x="590" y="268" class="label">Studio 1</text><circle cx="760" cy="262" r="6" class="dot-available"/><text x="774" y="268" class="label">Available</text><line x1="24" x2="884" y1="300" y2="300" class="divider"/><text x="40" y="332" class="label">Drone</text><text x="160" y="332" class="label">DJI Mavic Air 2</text><text x="430" y="332" class="label">2020</text><text x="590" y="332" class="label">Storage Room</text><circle cx="760" cy="326" r="6" class="dot-borrowed"/><text x="774" y="332" class="label">Borrowed</text><line x1="24" x2="884" y1="364" y2="364" class="divider"/><text x="40" y="396" class="label">Light</text><text x="160" y="396" class="label">Godox SL60W</text><text x="430" y="396" class="label">2019</text><text x="590" y="396" class="label">Studio 2</text><circle cx="760" cy="390" r="6" class="dot-available"/><text x="774" y="396" class="label">Available</text><rect width="508" height="640" x="908" y="188" class="panel" rx="8" ry="8"/><text x="932" y="220" class="title">Product Detail</text><text x="932" y="260" class="subtitle">Type</text><text x="1100" y="260" class="label">Camera</text><text x="932" y="292" class="subtitle">Name</text><text x="1100" y="292" class="label">Canon EOS R5</text><text x="932" y="324" class="subtitle">Purchase Date</text><text x="1100" y="324" class="label">2021</text><text x="932" y="356" class="subtitle">Details</text><text x="932" y="380" class="label">Full-frame mirrorless camera with 45MP sensor</text><text x="932" y="416" class="subtitle">Location</text><text x="1100" y="416" class="label">Studio 1</text><text x="932" y="448" class="subtitle">Current Status</text><circle cx="1108" cy="444" r="6" class="dot-available"/><text x="1122" y="448" class="label">Available</text><text x="932" y="488" class="subtitle">Borrow History</text><text x="932" y="512" class="label">Aurora — 2025-10-10 → 2025-10-12 (Returned)</text><text x="932" y="536" class="label">Kevin — 2025-09-25 → 2025-09-28 (Returned)</text><rect width="96" height="36" x="932" y="600" class="btn" rx="6" ry="6"/><text x="962" y="624" class="label">Edit</text><rect width="96" height="36" x="1040" y="600" class="btn" rx="6" ry="6"/><text x="1068" y="624" class="label">Close</text></svg>